<svg preserveAspectRatio="none" width="100%" height="100%" overflow="visible" style="display: block;" viewBox="0 0 6 8" fill="none" xmlns="http://www.w3.org/2000/svg">
<path id="Lighting" d="M3.16564 7.83082L5.93428 3.60121C6.05259 3.43202 6.00527 3.2145 5.83962 3.09366C5.79229 3.04532 5.7213 3.02115 5.65031 3.02115H3.47327V0.362538C3.47327 0.169184 3.30763 0 3.11832 0C3 0 2.88168 0.0725075 2.83436 0.169184L0.0657245 4.39879C-0.052593 4.56798 -0.00526616 4.7855 0.160378 4.90634C0.207705 4.95468 0.278696 4.97885 0.349687 4.97885H2.52673V7.63746C2.52673 7.83082 2.69237 8 2.88168 8C3 8 3.11832 7.92749 3.16564 7.83082Z" fill="var(--fill-0, #313949)"/>
</svg>
