<svg preserveAspectRatio="none" width="100%" height="100%" overflow="visible" style="display: block;" viewBox="0 0 48 48" fill="none" xmlns="http://www.w3.org/2000/svg">
<g id="co2 1">
<path d="M0 4C0 1.79086 1.79086 0 4 0H44C46.2091 0 48 1.79086 48 4V44C48 46.2091 46.2091 48 44 48H4C1.79086 48 0 46.2091 0 44V4Z" fill="var(--fill-0, white)"/>
<path id="Vector" d="M11.7398 20.34C11.7398 20.8632 12.0146 21.3468 12.4598 21.6084C12.905 21.87 13.4558 21.87 13.8998 21.6084C14.3462 21.3468 14.6198 20.8632 14.6198 20.34C14.6198 19.8168 14.3462 19.332 13.8998 19.0716C13.6816 18.9433 13.433 18.8757 13.1798 18.8757C12.9267 18.8757 12.6781 18.9433 12.4598 19.0716C12.0146 19.3332 11.7398 19.8156 11.7398 20.34ZM22.5434 15.4584C22.5434 16.2672 23.189 16.9224 23.9834 16.9224C24.7802 16.9224 25.4246 16.2672 25.4246 15.4584C25.4246 14.9352 25.1498 14.4504 24.7046 14.19C24.4864 14.0616 24.2378 13.9939 23.9846 13.9939C23.7314 13.9939 23.4828 14.0616 23.2646 14.19C22.8182 14.4516 22.5446 14.934 22.5446 15.4584H22.5434ZM16.301 15.4584C16.301 15.894 16.529 16.2972 16.901 16.5144C17.273 16.7328 17.7302 16.7328 18.101 16.5144C18.473 16.2972 18.7022 15.894 18.7022 15.4584C18.7022 15.0216 18.4742 14.6184 18.1022 14.4012C17.9204 14.2942 17.7132 14.2378 17.5022 14.2378C17.2912 14.2378 17.0841 14.2942 16.9022 14.4012C16.5302 14.6184 16.3022 15.0216 16.3022 15.4572L16.301 15.4584ZM29.267 15.702C29.267 16.1376 29.495 16.542 29.867 16.758C30.239 16.9776 30.695 16.9776 31.067 16.758C31.439 16.542 31.667 16.1376 31.667 15.702C31.667 15.2664 31.439 14.862 31.067 14.646C30.8852 14.539 30.678 14.4826 30.467 14.4826C30.256 14.4826 30.0489 14.539 29.867 14.646C29.495 14.862 29.267 15.2664 29.267 15.702ZM34.0682 14.97C34.0682 15.51 34.4978 15.9456 35.0282 15.9456C35.5586 15.9456 35.9882 15.5088 35.9882 14.97C35.9893 14.8428 35.9654 14.7167 35.9177 14.5988C35.8701 14.4808 35.7997 14.3735 35.7105 14.2828C35.6214 14.1921 35.5153 14.1198 35.3982 14.0701C35.2811 14.0204 35.1554 13.9943 35.0282 13.9932C34.4978 13.9932 34.0682 14.43 34.0682 14.97ZM11.7398 15.2136C11.7398 15.7536 12.1694 16.1904 12.6998 16.1904C13.2302 16.1904 13.6598 15.7536 13.6598 15.2136C13.6617 14.957 13.5617 14.7101 13.3817 14.5271C13.2017 14.3442 12.9565 14.2402 12.6998 14.238C12.1694 14.238 11.7398 14.6748 11.7398 15.2136ZM23.0234 10.5768C23.0234 11.1156 23.4542 11.5524 23.9834 11.5524C24.515 11.5524 24.9446 11.1156 24.9446 10.5768C24.9457 10.4496 24.9218 10.3235 24.8741 10.2056C24.8265 10.0876 24.7561 9.98027 24.6669 9.88957C24.5778 9.79886 24.4717 9.7266 24.3546 9.67692C24.2375 9.62724 24.1118 9.6011 23.9846 9.6C23.4542 9.6 23.0246 10.0368 23.0246 10.5768H23.0234ZM18.2222 11.3088C18.2222 11.5704 18.359 11.8128 18.5822 11.9424C18.6914 12.0065 18.8156 12.0404 18.9422 12.0404C19.0688 12.0404 19.1931 12.0065 19.3022 11.9424C19.5254 11.8116 19.6622 11.5704 19.6622 11.3088C19.6628 11.1808 19.6298 11.0549 19.5667 10.9435C19.5035 10.8322 19.4124 10.7393 19.3022 10.674C19.1931 10.6099 19.0688 10.576 18.9422 10.576C18.8156 10.576 18.6914 10.6099 18.5822 10.674C18.4721 10.7393 18.3809 10.8322 18.3178 10.9435C18.2547 11.0549 18.2217 11.1808 18.2222 11.3088ZM27.8258 12.0408C27.8258 12.4452 28.1486 12.7728 28.5458 12.7728C28.9442 12.7728 29.2658 12.4452 29.2658 12.0408C29.2666 11.9455 29.2486 11.8509 29.2129 11.7625C29.1771 11.6741 29.1243 11.5936 29.0574 11.5257C28.9906 11.4577 28.911 11.4036 28.8232 11.3664C28.7354 11.3291 28.6412 11.3096 28.5458 11.3088C28.1486 11.3088 27.8258 11.6364 27.8258 12.0408ZM33.5882 20.0952C33.5882 20.6184 33.863 21.1032 34.3082 21.3636C34.7546 21.6252 35.3042 21.6252 35.7482 21.3636C36.1946 21.102 36.4682 20.6196 36.4682 20.0952C36.4682 19.572 36.1946 19.0884 35.7482 18.8268C35.53 18.6985 35.2814 18.6309 35.0282 18.6309C34.7751 18.6309 34.5265 18.6985 34.3082 18.8268C33.863 19.0884 33.5882 19.572 33.5882 20.0952ZM25.7762 25.614C25.5043 25.6057 25.234 25.6579 24.9847 25.7669C24.7355 25.8758 24.5136 26.0388 24.335 26.244C23.9678 26.6616 23.7842 27.294 23.783 28.1376C23.7806 28.9824 23.9702 29.6124 24.3494 30.0276C24.719 30.4392 25.2422 30.6732 25.7894 30.6732C26.3378 30.6732 26.861 30.4392 27.2294 30.0276C27.5858 29.6148 27.7634 28.968 27.7634 28.1196C27.7634 27.2688 27.5834 26.6544 27.221 26.2344C27.0412 26.0301 26.8181 25.8684 26.568 25.7611C26.3179 25.6538 26.047 25.6035 25.775 25.614H25.7762Z" fill="var(--fill-0, #313949)"/>
<path id="Vector_2" d="M33.3482 23.43C33.2954 22.3861 32.9643 21.3753 32.3894 20.5024C31.8144 19.6296 31.0164 18.9263 30.0782 18.4656C29.1465 18.0126 28.1087 17.823 27.077 17.9171C26.0453 18.0112 25.059 18.3855 24.2246 18.9996C23.4012 18.3962 22.4304 18.0257 21.4143 17.9271C20.3982 17.8285 19.3743 18.0054 18.4502 18.4392C17.52 18.8805 16.7226 19.5593 16.1384 20.4071C15.5542 21.2548 15.2038 22.2416 15.1226 23.268C12.2582 24.1176 10.4426 26.976 10.859 29.9784C11.2766 32.982 13.799 35.2176 16.781 35.2284C17.0318 35.2284 17.2802 35.2116 17.5286 35.1804C18.2837 36.1784 19.2593 36.9884 20.3793 37.5469C21.4992 38.1054 22.7331 38.3974 23.9846 38.4C26.5106 38.4 28.895 37.212 30.4406 35.1804C30.6878 35.2116 30.9374 35.2284 31.187 35.2284C34.0826 35.2332 36.5678 33.1368 37.0982 30.2436C37.6286 27.3504 36.0506 24.4836 33.3482 23.43ZM20.7386 31.3524C20.1806 31.7604 19.5038 31.9644 18.8186 31.9356C18.3756 31.9492 17.9348 31.867 17.5265 31.6947C17.1181 31.5224 16.7517 31.264 16.4522 30.9372C15.8342 30.27 15.527 29.3604 15.5282 28.206C15.5282 26.9856 15.839 26.0376 16.4594 25.362C16.7698 25.026 17.1495 24.7613 17.5721 24.5862C17.9947 24.4111 18.4503 24.3299 18.9074 24.348C19.3023 24.3305 19.6966 24.3919 20.0675 24.5285C20.4383 24.6651 20.7783 24.8742 21.0674 25.1436C21.4298 25.518 21.6854 25.9848 21.8066 26.4948L20.3666 26.8464C20.3008 26.4944 20.1109 26.1777 19.8315 25.9538C19.5521 25.7299 19.2017 25.6136 18.8438 25.626C18.5963 25.615 18.3496 25.6607 18.1224 25.7597C17.8953 25.8588 17.6938 26.0084 17.5334 26.1972C17.1926 26.5896 17.0222 27.2232 17.0222 28.0968C17.0222 29.0244 17.1878 29.6856 17.5142 30.078C17.8286 30.4668 18.3014 30.684 18.7958 30.6696C19.163 30.6768 19.5194 30.5436 19.7942 30.2952C20.1122 29.9796 20.3258 29.5716 20.405 29.1264L21.8234 29.568C21.6688 30.2663 21.2874 30.8937 20.7386 31.3524ZM28.3202 30.9324C27.6806 31.602 26.8334 31.9356 25.7798 31.9356C24.7274 31.9356 23.873 31.6032 23.219 30.9372C22.5866 30.27 22.2662 29.3532 22.259 28.1868C22.239 27.5438 22.3504 26.9035 22.5866 26.3052C22.7522 25.932 22.9826 25.5912 23.2646 25.2996C23.5286 25.0164 23.8454 24.7908 24.1982 24.6384C24.6926 24.4356 25.2218 24.3372 25.7534 24.348C26.2256 24.3269 26.697 24.4056 27.1368 24.5789C27.5765 24.7521 27.9749 25.0161 28.3058 25.3536C28.9466 26.0256 29.2658 26.958 29.2658 28.1496C29.2658 29.3424 28.9514 30.27 28.3202 30.9336V30.9324ZM33.0794 32.544H30.071C30.107 32.238 30.215 31.9464 30.3854 31.692C30.6614 31.326 30.9938 31.008 31.3694 30.75C31.577 30.606 31.7666 30.4356 31.9334 30.2448C32.0077 30.1503 32.0505 30.0349 32.0558 29.9148C32.0544 29.8599 32.0422 29.8058 32.0198 29.7557C31.9974 29.7055 31.9654 29.6603 31.9254 29.6226C31.8855 29.5849 31.8385 29.5555 31.7872 29.536C31.7358 29.5166 31.6811 29.5074 31.6262 29.5092C31.5686 29.5074 31.5113 29.5174 31.4577 29.5384C31.4041 29.5595 31.3553 29.5912 31.3142 29.6316C31.2155 29.7558 31.1576 29.9076 31.1486 30.066L30.1454 29.9832C30.1694 29.7468 30.2426 29.5176 30.3614 29.3112C30.4706 29.1477 30.6248 29.0193 30.8054 28.9416C31.0586 28.8444 31.3298 28.8 31.5998 28.812C31.8794 28.8 32.159 28.842 32.4242 28.9332C32.6128 29.009 32.7741 29.1402 32.8868 29.3094C32.9994 29.4786 33.0582 29.6779 33.0554 29.8812C33.0542 30.1084 32.9875 30.3305 32.8634 30.5208C32.6714 30.7854 32.4327 31.0127 32.159 31.1916C31.9574 31.3332 31.823 31.4352 31.7534 31.4892C31.6838 31.5432 31.607 31.6212 31.5134 31.7136H33.0794V32.544Z" fill="var(--fill-0, #313949)"/>
</g>
</svg>
