<svg width="80" height="80" viewBox="0 0 80 80" fill="none" xmlns="http://www.w3.org/2000/svg">
<path d="M15.1406 10.6797H64.8594V52.8281H15.1406V10.6797Z" fill="#F8F9FB"/>
<path d="M59.5547 28.5469H20.4453C19.3281 28.5469 18.4297 29.4531 18.4297 30.5625V47.9766C18.4297 49.0938 19.3359 49.9922 20.4453 49.9922H59.5625C60.6797 49.9922 61.5781 49.0859 61.5781 47.9766V30.5625C61.5781 29.4453 60.6719 28.5469 59.5547 28.5469Z" fill="#CACFD8"/>
<path d="M0 63.4219C0 66.9028 4.21427 70.2412 11.7157 72.7027C19.2172 75.1641 29.3913 76.5469 40 76.5469C50.6087 76.5469 60.7828 75.1641 68.2843 72.7027C75.7857 70.2412 80 66.9028 80 63.4219C80 59.9409 75.7857 56.6025 68.2843 54.1411C60.7828 51.6797 50.6087 50.2969 40 50.2969C29.3913 50.2969 19.2172 51.6797 11.7157 54.1411C4.21427 56.6025 0 59.9409 0 63.4219Z" fill="#F3F3F6"/>
<path d="M67.1328 38.1875H12.8672C11.75 38.1875 10.8516 39.0937 10.8516 40.2031V65.4375C10.8516 66.5547 11.7578 67.4531 12.8672 67.4531H67.125C68.2422 67.4531 69.1406 66.5469 69.1406 65.4375V40.2031C69.1484 39.0937 68.2422 38.1875 67.1328 38.1875Z" fill="#E6E8EE"/>
<path d="M46.75 49.7969H33.25C32.6953 49.7969 32.2422 50.25 32.2422 50.8047V54.8437C32.2422 55.3984 32.6953 55.8516 33.25 55.8516H46.75C47.3047 55.8516 47.7578 55.3984 47.7578 54.8437V50.8047C47.7578 50.25 47.3047 49.7969 46.75 49.7969Z" fill="#CACFD8"/>
<path d="M67.2578 5.79688H12.7422C11.625 5.79688 10.7266 6.70313 10.7266 7.8125V15.5703C10.7266 16.6875 11.6328 17.5859 12.7422 17.5859H67.25C68.3672 17.5859 69.2656 16.6797 69.2656 15.5703V7.8125C69.2734 6.70313 68.3672 5.79688 67.2578 5.79688Z" fill="#E6E8EE"/>
<path d="M44.1641 11.8516C44.1641 12.3861 44.3764 12.8988 44.7544 13.2768C45.1324 13.6548 45.6451 13.8672 46.1797 13.8672C46.7143 13.8672 47.2269 13.6548 47.605 13.2768C47.983 12.8988 48.1953 12.3861 48.1953 11.8516C48.1953 11.317 47.983 10.8043 47.605 10.4263C47.2269 10.0483 46.7143 9.83594 46.1797 9.83594C45.6451 9.83594 45.1324 10.0483 44.7544 10.4263C44.3764 10.8043 44.1641 11.317 44.1641 11.8516Z" fill="#5F646E"/>
<path d="M52.4922 11.8516C52.4922 12.3861 52.7045 12.8988 53.0826 13.2768C53.4606 13.6548 53.9732 13.8672 54.5078 13.8672C55.0424 13.8672 55.5551 13.6548 55.9331 13.2768C56.3111 12.8988 56.5234 12.3861 56.5234 11.8516C56.5234 11.317 56.3111 10.8043 55.9331 10.4263C55.5551 10.0483 55.0424 9.83594 54.5078 9.83594C53.9732 9.83594 53.4606 10.0483 53.0826 10.4263C52.7045 10.8043 52.4922 11.317 52.4922 11.8516Z" fill="#DD5041"/>
<path d="M60.6953 11.8516C60.6953 12.3861 60.9077 12.8988 61.2857 13.2768C61.6637 13.6548 62.1764 13.8672 62.7109 13.8672C63.2455 13.8672 63.7582 13.6548 64.1362 13.2768C64.5142 12.8988 64.7266 12.3861 64.7266 11.8516C64.7266 11.317 64.5142 10.8043 64.1362 10.4263C63.7582 10.0483 63.2455 9.83594 62.7109 9.83594C62.1764 9.83594 61.6637 10.0483 61.2857 10.4263C60.9077 10.8043 60.6953 11.317 60.6953 11.8516Z" fill="#E3A64C"/>
</svg>
