<svg preserveAspectRatio="none" width="100%" height="100%" overflow="visible" style="display: block;" viewBox="0 0 18 24" fill="none" xmlns="http://www.w3.org/2000/svg">
<path id="Vector" d="M0.402333 19.556C-0.896057 12.9583 1.10313 9.55043 4.1775 7.30276C8.01987 4.4879 12.095 3.85977 15.0734 0.812881C16.871 -1.02697 17.483 0.789443 17.5574 1.08944C18.6254 5.42306 17.9054 10.2254 13.7966 13.9637C9.31346 18.0395 2.61752 16.3005 1.16793 23.681C1.15593 23.7349 1.11753 23.7794 1.06713 23.8029L0.591931 23.988C0.539132 24.0091 0.479132 24.0021 0.433532 23.9693C0.387933 23.9364 0.363933 23.8825 0.371133 23.8263C0.72873 20.5239 1.87592 17.3505 3.72151 14.5614C5.41589 11.9739 7.71747 9.58558 10.5399 7.29573C10.6359 7.22073 10.6527 7.08245 10.5783 6.98635C10.5039 6.89026 10.3647 6.86916 10.2639 6.93948C8.00547 8.45589 6.05189 10.0496 4.4247 11.9926C2.72551 14.0223 1.37432 16.4434 0.402333 19.556Z" fill="var(--fill-0, #3EC064)"/>
</svg>
