<svg preserveAspectRatio="none" width="100%" height="100%" overflow="visible" style="display: block;" viewBox="0 0 48 48" fill="none" xmlns="http://www.w3.org/2000/svg">
<g id="&#231;&#173;&#137;&#230;&#149;&#136;&#230;&#164;&#141;&#230;&#160;&#145; 1">
<path d="M0 4C0 1.79086 1.79086 0 4 0H44C46.2091 0 48 1.79086 48 4V44C48 46.2091 46.2091 48 44 48H4C1.79086 48 0 46.2091 0 44V4Z" fill="var(--fill-0, white)"/>
<path id="Vector" d="M21 34.2H27.6C28 34.2 28.2 34.4 28.2 34.8V41.4C28.2 41.8 28 42 27.6 42H21C20.6 42 20.4 41.8 20.4 41.4V34.8C20.4 34.4 20.6 34.2 21 34.2Z" fill="var(--fill-0, #6F5648)"/>
<path id="Vector_2" d="M10.884 36.6H37.116C37.9032 36.4638 39.1452 35.787 37.8138 34.161L30.4548 27.1146H34.8984C35.775 26.979 37.0644 26.3016 35.175 24.675L28.3686 18.306H31.983C32.7234 18.171 33.759 17.4924 31.983 15.867L24.618 8.685C24.4824 8.553 24.2196 8.3682 23.9994 8.4048C23.7792 8.3688 23.5164 8.5536 23.3808 8.685L16.0212 15.867C14.2398 17.493 15.2808 18.171 16.0212 18.306H19.6308L12.825 24.675C10.9362 26.301 12.225 26.979 13.101 27.1146H17.5452L10.1904 34.161C8.8548 35.787 10.0968 36.4638 10.8846 36.6H10.884Z" fill="var(--fill-0, #143F20)"/>
</g>
</svg>
