<svg xmlns="http://www.w3.org/2000/svg" width="1600" height="600" viewBox="0 0 1600 600" style="background-color: white;">
<defs>
<marker id="arrowhead" markerWidth="10" markerHeight="7" refX="9" refY="3.5" orient="auto">
<polygon points="0 0, 10 3.5, 0 7" fill="#333" />
</marker>
</defs>

    <metadata>
        <rdf:RDF xmlns:rdf="http://www.w3.org/1999/02/22-rdf-syntax-ns#" xmlns:dc="http://purl.org/dc/elements/1.1/">
            <rdf:Description>
                <dc:creator>Trae AI</dc:creator>
                <dc:date>2026-03-03T13:30:06.951827</dc:date>
                <dc:title>Pricing Region Rule Flow</dc:title>
                <dc:description>描述：Pricing Region 规则过滤与执行流程; 版本：1.0; 作者：Trae AI</dc:description>
            </rdf:Description>
        </rdf:RDF>
    </metadata>
    
<path d="M 86 118.0 L 150 118.0" stroke="#555" stroke-width="2" fill="none" marker-end="url(#arrowhead)" />
<path d="M 200 118.0 L 250 118.0" stroke="#555" stroke-width="2" fill="none" marker-end="url(#arrowhead)" />
<path d="M 350 118.0 L 400 118.0" stroke="#555" stroke-width="2" fill="none" marker-end="url(#arrowhead)" />
<path d="M 450 118.0 L 550 118.0" stroke="#555" stroke-width="2" fill="none" marker-end="url(#arrowhead)" />
<text x="500.0" y="113.0" font-family="Arial" font-size="11" fill="#333" text-anchor="middle" style="background-color: white;">条件成立</text>
<path d="M 425.0 143 L 425.0 250" stroke="#555" stroke-width="2" fill="none" marker-end="url(#arrowhead)" />
<text x="425.0" y="188.0" font-family="Arial" font-size="11" fill="#333" text-anchor="middle" style="background-color: white;">条件不成立</text>
<path d="M 425.0 286 L 425.0 326.35 L 175.0 326.35 L 175.0 143" stroke="#555" stroke-width="2" fill="none" marker-end="url(#arrowhead)" />
<path d="M 600 118.0 L 700 118.0" stroke="#555" stroke-width="2" fill="none" marker-end="url(#arrowhead)" />
<text x="650.0" y="113.0" font-family="Arial" font-size="11" fill="#333" text-anchor="middle" style="background-color: white;">=1 或 (>1 且 Type=1)</text>
<path d="M 575.0 143 L 575.0 250" stroke="#555" stroke-width="2" fill="none" marker-end="url(#arrowhead)" />
<text x="575.0" y="188.0" font-family="Arial" font-size="11" fill="#333" text-anchor="middle" style="background-color: white;">>1 且 Type>1</text>
<path d="M 575.0 286 L 575.0 333.85 L 175.0 333.85 L 175.0 143" stroke="#555" stroke-width="2" fill="none" marker-end="url(#arrowhead)" />
<path d="M 750 118.0 L 850 60.0" stroke="#555" stroke-width="2" fill="none" marker-end="url(#arrowhead)" />
<text x="812.5" y="84.0" font-family="Arial" font-size="11" fill="#333" text-anchor="middle" style="background-color: white;">不存在</text>
<path d="M 950 60.0 L 1000 60.0" stroke="#555" stroke-width="2" fill="none" marker-end="url(#arrowhead)" />
<path d="M 1100 60.0 L 1150 60.0" stroke="#555" stroke-width="2" fill="none" marker-end="url(#arrowhead)" />
<path d="M 1168.0 78 L 1168.0 155.5 L 175.0 155.5 L 175.0 143" stroke="#555" stroke-width="2" fill="none" marker-end="url(#arrowhead)" />
<path d="M 750 118.0 L 850 190.0" stroke="#555" stroke-width="2" fill="none" marker-end="url(#arrowhead)" />
<text x="812.5" y="149.0" font-family="Arial" font-size="11" fill="#333" text-anchor="middle" style="background-color: white;">存在且 Type≠当前</text>
<path d="M 950 190.0 L 1000 190.0" stroke="#555" stroke-width="2" fill="none" marker-end="url(#arrowhead)" />
<path d="M 1100 190.0 L 1150 190.0" stroke="#555" stroke-width="2" fill="none" marker-end="url(#arrowhead)" />
<path d="M 1250 190.0 L 1300 190.0" stroke="#555" stroke-width="2" fill="none" marker-end="url(#arrowhead)" />
<path d="M 1318.0 208 L 1318.0 293.0 L 175.0 293.0 L 175.0 143" stroke="#555" stroke-width="2" fill="none" marker-end="url(#arrowhead)" />
<path d="M 750 118.0 L 850 320.0" stroke="#555" stroke-width="2" fill="none" marker-end="url(#arrowhead)" />
<text x="812.5" y="214.0" font-family="Arial" font-size="11" fill="#333" text-anchor="middle" style="background-color: white;">存在且 Type=当前</text>
<path d="M 950 320.0 L 1000 320.0" stroke="#555" stroke-width="2" fill="none" marker-end="url(#arrowhead)" />
<path d="M 1018.0 338 L 1018.0 408.0 L 175.0 408.0 L 175.0 143" stroke="#555" stroke-width="2" fill="none" marker-end="url(#arrowhead)" />
<circle cx="68.0" cy="118.0" r="18.0" fill="#E8F5E9" stroke="#2E7D32" stroke-width="2" />
<text x="68.0" y="151" font-family="Arial" font-size="12" fill="#000" text-anchor="middle">T0触发</text>
<polygon points="175.0,93 200,118.0 175.0,143 150,118.0" fill="#FFF3E0" stroke="#EF6C00" stroke-width="2" /><path d="M 165 108 L 185 128 M 185 108 L 165 128" stroke="#EF6C00" stroke-width="2" />
<rect x="250" y="78" width="100" height="80" rx="10" ry="10" fill="#E3F2FD" stroke="#1565C0" stroke-width="2" />
<text x="300.0" y="123.0" font-family="Arial" font-size="12" fill="#000" text-anchor="middle">Pricing Region 过滤 Rule</text>
<polygon points="425.0,93 450,118.0 425.0,143 400,118.0" fill="#FFF3E0" stroke="#EF6C00" stroke-width="2" /><path d="M 415 108 L 435 128 M 435 108 L 415 128" stroke="#EF6C00" stroke-width="2" />
<text x="425.0" y="158" font-family="Arial" font-size="12" fill="#000" text-anchor="middle">条件成立?</text>
<circle cx="425.0" cy="268.0" r="18.0" fill="#FFFDE7" stroke="#F9A825" stroke-width="2" /><path d="M 425.0 260.0 L 425.0 268.0 L 430.0 273.0" stroke="#F9A825" stroke-width="2" fill="none" />
<text x="425.0" y="301" font-family="Arial" font-size="12" fill="#000" text-anchor="middle">5 min</text>
<polygon points="575.0,93 600,118.0 575.0,143 550,118.0" fill="#FFF3E0" stroke="#EF6C00" stroke-width="2" /><path d="M 565 108 L 585 128 M 585 108 L 565 128" stroke="#EF6C00" stroke-width="2" />
<text x="575.0" y="158" font-family="Arial" font-size="12" fill="#000" text-anchor="middle">Rule Count?</text>
<circle cx="575.0" cy="268.0" r="18.0" fill="#FFFDE7" stroke="#F9A825" stroke-width="2" /><path d="M 575.0 260.0 L 575.0 268.0 L 580.0 273.0" stroke="#F9A825" stroke-width="2" fill="none" />
<text x="575.0" y="301" font-family="Arial" font-size="12" fill="#000" text-anchor="middle">5 min</text>
<polygon points="725.0,93 750,118.0 725.0,143 700,118.0" fill="#FFF3E0" stroke="#EF6C00" stroke-width="2" /><path d="M 715 108 L 735 128 M 735 108 L 715 128" stroke="#EF6C00" stroke-width="2" />
<text x="725.0" y="158" font-family="Arial" font-size="12" fill="#000" text-anchor="middle">DER Executing?</text>
<rect x="850" y="20" width="100" height="80" rx="10" ry="10" fill="#E3F2FD" stroke="#1565C0" stroke-width="2" />
<text x="900.0" y="65.0" font-family="Arial" font-size="12" fill="#000" text-anchor="middle">Latest Rule</text>
<rect x="1000" y="20" width="100" height="80" rx="10" ry="10" fill="#E3F2FD" stroke="#1565C0" stroke-width="2" />
<text x="1050.0" y="65.0" font-family="Arial" font-size="12" fill="#000" text-anchor="middle">生成新的 Executing 事件</text>
<circle cx="1168.0" cy="60.0" r="18.0" fill="#FFFDE7" stroke="#F9A825" stroke-width="2" /><path d="M 1168.0 52.0 L 1168.0 60.0 L 1173.0 65.0" stroke="#F9A825" stroke-width="2" fill="none" />
<text x="1168.0" y="93" font-family="Arial" font-size="12" fill="#000" text-anchor="middle">5 min</text>
<rect x="850" y="150" width="100" height="80" rx="10" ry="10" fill="#E3F2FD" stroke="#1565C0" stroke-width="2" />
<text x="900.0" y="195.0" font-family="Arial" font-size="12" fill="#000" text-anchor="middle">结束原事件</text>
<rect x="1000" y="150" width="100" height="80" rx="10" ry="10" fill="#E3F2FD" stroke="#1565C0" stroke-width="2" />
<text x="1050.0" y="195.0" font-family="Arial" font-size="12" fill="#000" text-anchor="middle">Latest Rule</text>
<rect x="1150" y="150" width="100" height="80" rx="10" ry="10" fill="#E3F2FD" stroke="#1565C0" stroke-width="2" />
<text x="1200.0" y="195.0" font-family="Arial" font-size="12" fill="#000" text-anchor="middle">生成新的 Executing 事件</text>
<circle cx="1318.0" cy="190.0" r="18.0" fill="#FFFDE7" stroke="#F9A825" stroke-width="2" /><path d="M 1318.0 182.0 L 1318.0 190.0 L 1323.0 195.0" stroke="#F9A825" stroke-width="2" fill="none" />
<text x="1318.0" y="223" font-family="Arial" font-size="12" fill="#000" text-anchor="middle">5 min</text>
<rect x="850" y="280" width="100" height="80" rx="10" ry="10" fill="#E3F2FD" stroke="#1565C0" stroke-width="2" />
<text x="900.0" y="325.0" font-family="Arial" font-size="12" fill="#000" text-anchor="middle">保持原事件</text>
<circle cx="1018.0" cy="320.0" r="18.0" fill="#FFFDE7" stroke="#F9A825" stroke-width="2" /><path d="M 1018.0 312.0 L 1018.0 320.0 L 1023.0 325.0" stroke="#F9A825" stroke-width="2" fill="none" />
<text x="1018.0" y="353" font-family="Arial" font-size="12" fill="#000" text-anchor="middle">5 min</text>
</svg>