<svg preserveAspectRatio="none" width="100%" height="100%" overflow="visible" style="display: block;" viewBox="0 0 20 23.119" fill="none" xmlns="http://www.w3.org/2000/svg">
<path id="Union" d="M10 0L20 3.5V11.5595C20 15.6866 17.4665 18.5712 15.1042 20.3625C13.9133 21.2657 12.7282 21.9217 11.8434 22.3518C11.2428 22.6438 10.63 22.8984 10 23.119C9.37005 22.898 8.75727 22.6438 8.15656 22.3518C7.27184 21.9217 6.08675 21.2657 4.89576 20.3625C2.53351 18.5712 0 15.6866 0 11.5595V3.5L10 0ZM10 20.9875C10.0029 20.9864 10.0058 20.9852 10.0087 20.984C10.2374 20.8906 10.569 20.7476 10.9691 20.5531C11.7718 20.1628 12.8367 19.572 13.8958 18.7689C16.0335 17.1478 18 14.7824 18 11.5595V4.91896L10 2.11896L2 4.91896V11.5595C2 14.7824 3.96649 17.1478 6.10424 18.7689C7.16325 19.572 8.22816 20.1628 9.03094 20.5531C9.43103 20.7476 9.76264 20.8906 9.99131 20.984C9.99423 20.9852 9.99712 20.9864 10 20.9875ZM16.0721 7.90262L9.00104 14.9737L4.75839 10.731L6.17261 9.31683L9.00104 12.1453L14.6579 6.48841L16.0721 7.90262Z" fill="var(--fill-0, #313949)"/>
</svg>
