<svg preserveAspectRatio="none" width="100%" height="100%" overflow="visible" style="display: block;" viewBox="0 0 22 22" fill="none" xmlns="http://www.w3.org/2000/svg">
<path id="Union" d="M9 3.36994V12H7V3.05181L7.04193 2.91161C7.16532 2.49904 7.49182 1.79747 8.10487 1.18351C8.74103 0.546403 9.69417 0 11 0C12.3058 0 13.259 0.546403 13.8951 1.18351C14.5082 1.79747 14.8347 2.49904 14.9581 2.91161L15 3.05181V5.43653H13V3.36994C12.9224 3.18303 12.7561 2.87331 12.4799 2.59668C12.1577 2.27403 11.6942 2 11 2C10.3058 2 9.8423 2.27403 9.52013 2.59668C9.24391 2.87331 9.07763 3.18303 9 3.36994ZM3.05181 7H5.43653V9H3.36994C3.18303 9.07762 2.87331 9.24391 2.59668 9.52013C2.27403 9.8423 2 10.3058 2 11C2 11.6942 2.27403 12.1577 2.59668 12.4799C2.87331 12.7561 3.18302 12.9224 3.36994 13H12V15H3.05181L2.91161 14.9581C2.49904 14.8347 1.79747 14.5082 1.18351 13.8951C0.546403 13.259 0 12.3058 0 11C5.96046e-08 9.69417 0.546403 8.74103 1.18351 8.10487C1.79747 7.49182 2.49904 7.16532 2.91161 7.04193L3.05181 7ZM10 7L18.9482 7L19.0884 7.04193C19.501 7.16532 20.2025 7.49182 20.8165 8.10487C21.4536 8.74103 22 9.69417 22 11C22 12.3058 21.4536 13.259 20.8165 13.8951C20.2025 14.5082 19.501 14.8347 19.0884 14.9581L18.9482 15H16.5635V13H18.6301C18.817 12.9224 19.1267 12.7561 19.4033 12.4799C19.726 12.1577 20 11.6942 20 11C20 10.3058 19.726 9.8423 19.4033 9.52013C19.1267 9.24391 18.817 9.07763 18.6301 9H10V7ZM15 10V18.9482L14.9581 19.0884C14.8347 19.501 14.5082 20.2025 13.8951 20.8165C13.259 21.4536 12.3058 22 11 22C9.69417 22 8.74103 21.4536 8.10487 20.8165C7.49182 20.2025 7.16532 19.501 7.04193 19.0884L7 18.9482V16.5635H9V18.6301C9.07763 18.817 9.24391 19.1267 9.52013 19.4033C9.8423 19.726 10.3058 20 11 20C11.6942 20 12.1577 19.726 12.4799 19.4033C12.7561 19.1267 12.9224 18.817 13 18.6301V10H15Z" fill="var(--fill-0, #313949)"/>
</svg>
